<?xml version="1.0" encoding="iso-8859-1"?>
<!-- Uploaded to: SVG Repo, www.svgrepo.com, Generator: SVG Repo Mixer Tools -->
<svg fill="#000000" height="800px" width="800px" version="1.1" id="Layer_1" xmlns="http://www.w3.org/2000/svg" xmlns:xlink="http://www.w3.org/1999/xlink" 
	 viewBox="0 0 456.453 456.453" xml:space="preserve">
<g>
	<g>
		<path d="M455.098,325.281c-1.208-1.545-3.061-2.447-5.022-2.447h-85.717C360.198,159.542,319.874,74.4,241.186,14.278
			c-2.436-1.862-5.718-2.18-8.467-0.822c-2.749,1.358-4.493,4.158-4.493,7.224v302.155h-28V89.992c0-2.425-1.379-4.638-3.552-5.712
			c-2.174-1.074-4.768-0.822-6.695,0.65c-61.236,46.788-93.087,112.739-97.215,237.903H6.376c-1.961,0-3.813,0.903-5.022,2.447
			c-1.208,1.545-1.639,3.559-1.167,5.463l12.721,51.308c8.998,36.294,41.577,61.781,78.97,61.781h272.696
			c37.393,0,69.971-25.488,78.97-61.781l12.721-51.308C456.737,328.84,456.307,326.825,455.098,325.281z"/>
	</g>
</g>
</svg>